# xmcd
#
# Track frame offsets: 
#        150
#        19900
#        36902
#        49285
#        71647
#        85260
#        98917
#        112997
#        130290
#        143565
#
# Disc length: 2171 seconds
#
# Revision: 1
# Processed by: cddbd v1.5.1PL0 Copyright (c) Steve Scherf et al.
# Submitted via: ExactAudioCopy v0.95a5
#
DISCID=8808790a
DTITLE=Bruce Robison - Long Way Home From Anywhere
DYEAR=1999
DGENRE=Country
TTITLE0=Drivin' All Night Long
TTITLE1=Just Married
TTITLE2=Red Letter Day
TTITLE3=Travelin' Soldier
TTITLE4=The Good Life
TTITLE5=Trouble
TTITLE6=Anymore Good Lovin'
TTITLE7=What Did You Think
TTITLE8=Emotionally Gone
TTITLE9=Long Way Home From Anywhere
EXTD=
EXTT0=
EXTT1=
EXTT2=
EXTT3=
EXTT4=
EXTT5=
EXTT6=
EXTT7=
EXTT8=
EXTT9=
PLAYORDER=
